<svg width="36" height="36" viewBox="0 0 36 36" fill="none" xmlns="http://www.w3.org/2000/svg">
<g clip-path="url(#clip0_1733_667)">
<g filter="url(#filter0_d_1733_667)">
<path fill-rule="evenodd" clip-rule="evenodd" d="M10.1086 4.82596C8.50825 5.25479 7.5585 6.8998 7.98733 8.5002L9.82495 15.3583C7.74038 16.3965 6.60338 18.79 7.22945 21.1266L8.02589 24.0989C8.4035 25.5082 9.212 26.7642 10.3384 27.6915L14.3033 30.9556C15.3007 31.7766 16.6331 32.0655 17.8809 31.7311L25.3332 29.7343C26.7197 29.3628 27.8009 28.2768 28.1662 26.8886L29.3695 22.3164C29.6796 21.1384 29.6768 19.8998 29.3615 18.7231L28.4798 15.4326C27.786 12.8433 25.1823 11.276 22.5906 11.8401C21.9001 11.3863 21.0263 11.2181 20.1654 11.4487C19.649 11.5871 19.2003 11.8521 18.8438 12.2014C18.1134 11.5349 17.069 11.2432 16.0429 11.5181C15.7042 11.6088 15.3947 11.7541 15.1212 11.9418L13.7829 6.94728C13.3541 5.34688 11.709 4.39714 10.1086 4.82596Z" fill="white"/>
</g>
<path fill-rule="evenodd" clip-rule="evenodd" d="M10.1086 4.82596C8.50825 5.25479 7.5585 6.8998 7.98733 8.5002L9.82495 15.3583C7.74038 16.3965 6.60338 18.79 7.22945 21.1266L8.02589 24.0989C8.4035 25.5082 9.212 26.7642 10.3384 27.6915L14.3033 30.9556C15.3007 31.7766 16.6331 32.0655 17.8809 31.7311L25.3332 29.7343C26.7197 29.3628 27.8009 28.2768 28.1662 26.8886L29.3695 22.3164C29.6796 21.1384 29.6768 19.8998 29.3615 18.7231L28.4798 15.4326C27.786 12.8433 25.1823 11.276 22.5906 11.8401C21.9001 11.3863 21.0263 11.2181 20.1654 11.4487C19.649 11.5871 19.2003 11.8521 18.8438 12.2014C18.1134 11.5349 17.069 11.2432 16.0429 11.5181C15.7042 11.6088 15.3947 11.7541 15.1212 11.9418L13.7829 6.94728C13.3541 5.34688 11.709 4.39714 10.1086 4.82596ZM15.8534 14.6747C15.9964 15.2082 15.6798 15.7565 15.1463 15.8994C14.6129 16.0424 14.0645 15.7258 13.9216 15.1923L11.851 7.46492C11.7081 6.93145 11.1598 6.61487 10.6263 6.75781C10.0928 6.90076 9.77624 7.44909 9.91918 7.98256L13.2838 20.5396C13.4268 21.0731 13.1102 21.6214 12.5767 21.7643C12.0433 21.9073 11.4949 21.5907 11.352 21.0572L10.3609 17.3584C9.34198 18.0578 8.82323 19.3472 9.16131 20.6089L9.95775 23.5813C10.2275 24.5879 10.805 25.4851 11.6095 26.1474L15.5745 29.4115C16.0732 29.822 16.7394 29.9664 17.3633 29.7993L24.8156 27.8024C25.5088 27.6167 26.0494 27.0737 26.2321 26.3796L27.4354 21.8074C27.6568 20.9659 27.6549 20.0812 27.4297 19.2407L26.548 15.9502C26.2099 14.6885 25.1159 13.8312 23.8838 13.735L24.0985 14.536C24.2414 15.0695 23.9248 15.6178 23.3914 15.7607C22.8579 15.9037 22.3096 15.5871 22.1666 15.0536L21.9078 14.0877C21.7649 13.5542 21.2165 13.2377 20.6831 13.3806C20.1496 13.5235 19.833 14.0719 19.976 14.6053C20.1189 15.1388 19.8023 15.6871 19.2689 15.8301C18.7354 15.973 18.187 15.6564 18.0441 15.123L17.7853 14.1571C17.6423 13.6236 17.094 13.307 16.5605 13.4499C16.0271 13.5929 15.7105 14.1412 15.8534 14.6747Z" fill="#1F1F1F"/>
</g>
<defs>
<filter id="filter0_d_1733_667" x="4.05786" y="3.2229" width="28.5422" height="33.1445" filterUnits="userSpaceOnUse" color-interpolation-filters="sRGB">
<feFlood flood-opacity="0" result="BackgroundImageFix"/>
<feColorMatrix in="SourceAlpha" type="matrix" values="0 0 0 0 0 0 0 0 0 0 0 0 0 0 0 0 0 0 127 0" result="hardAlpha"/>
<feOffset dy="1.5"/>
<feGaussianBlur stdDeviation="1.5"/>
<feComposite in2="hardAlpha" operator="out"/>
<feColorMatrix type="matrix" values="0 0 0 0 0.0705882 0 0 0 0 0.0745098 0 0 0 0 0.101961 0 0 0 0.25 0"/>
<feBlend mode="normal" in2="BackgroundImageFix" result="effect1_dropShadow_1733_667"/>
<feBlend mode="normal" in="SourceGraphic" in2="effect1_dropShadow_1733_667" result="shape"/>
</filter>
<clipPath id="clip0_1733_667">
<rect width="36" height="36" fill="white"/>
</clipPath>
</defs>
</svg>
