<svg fill="none" height="36" viewBox="0 0 36 36" width="36" xmlns="http://www.w3.org/2000/svg" xmlns:xlink="http://www.w3.org/1999/xlink"><filter id="a" color-interpolation-filters="sRGB" filterUnits="userSpaceOnUse" height="33.1445" width="28.5422" x="4.05786" y="3.2229"><feFlood flood-opacity="0" result="BackgroundImageFix"/><feColorMatrix in="SourceAlpha" result="hardAlpha" type="matrix" values="0 0 0 0 0 0 0 0 0 0 0 0 0 0 0 0 0 0 127 0"/><feOffset dy="1.5"/><feGaussianBlur stdDeviation="1.5"/><feComposite in2="hardAlpha" operator="out"/><feColorMatrix type="matrix" values="0 0 0 0 0.0705882 0 0 0 0 0.0745098 0 0 0 0 0.101961 0 0 0 0.25 0"/><feBlend in2="BackgroundImageFix" mode="normal" result="effect1_dropShadow_1733_667"/><feBlend in="SourceGraphic" in2="effect1_dropShadow_1733_667" mode="normal" result="shape"/></filter><clipPath id="b"><path d="m0 0h36v36h-36z"/></clipPath><g clip-path="url(#b)"><g filter="url(#a)"><path clip-rule="evenodd" d="m10.1086 4.82596c-1.60035.42883-2.5501 2.07384-2.12127 3.67424l1.83762 6.8581c-2.08457 1.0382-3.22157 3.4317-2.5955 5.7683l.79644 2.9723c.37761 1.4093 1.18611 2.6653 2.31251 3.5926l3.9649 3.2641c.9974.821 2.3298 1.1099 3.5776.7755l7.4523-1.9968c1.3865-.3715 2.4677-1.4575 2.833-2.8457l1.2033-4.5722c.3101-1.178.3073-2.4166-.008-3.5933l-.8817-3.2905c-.6938-2.5893-3.2975-4.1566-5.8892-3.5925-.6905-.4538-1.5643-.622-2.4252-.3914-.5164.1384-.9651.4034-1.3216.7527-.7304-.6665-1.7748-.9582-2.8009-.6833-.3387.0907-.6482.236-.9217.4237l-1.3383-4.99452c-.4288-1.6004-2.0739-2.55014-3.6743-2.12132z" fill="#fff" fill-rule="evenodd"/></g><path clip-rule="evenodd" d="m10.1086 4.82596c-1.60035.42883-2.5501 2.07384-2.12127 3.67424l1.83762 6.8581c-2.08457 1.0382-3.22157 3.4317-2.5955 5.7683l.79644 2.9723c.37761 1.4093 1.18611 2.6653 2.31251 3.5926l3.9649 3.2641c.9974.821 2.3298 1.1099 3.5776.7755l7.4523-1.9968c1.3865-.3715 2.4677-1.4575 2.833-2.8457l1.2033-4.5722c.3101-1.178.3073-2.4166-.008-3.5933l-.8817-3.2905c-.6938-2.5893-3.2975-4.1566-5.8892-3.5925-.6905-.4538-1.5643-.622-2.4252-.3914-.5164.1384-.9651.4034-1.3216.7527-.7304-.6665-1.7748-.9582-2.8009-.6833-.3387.0907-.6482.236-.9217.4237l-1.3383-4.99452c-.4288-1.6004-2.0739-2.55014-3.6743-2.12132zm5.7448 9.84874c.143.5335-.1736 1.0818-.7071 1.2247-.5334.143-1.0818-.1736-1.2247-.7071l-2.0706-7.72738c-.1429-.53347-.6912-.85005-1.2247-.70711-.5335.14295-.85006.69128-.70712 1.22475l3.36462 12.55704c.143.5335-.1736 1.0818-.7071 1.2247-.5334.143-1.0818-.1736-1.2247-.7071l-.9911-3.6988c-1.01892.6994-1.53767 1.9888-1.19959 3.2505l.79644 2.9724c.26975 1.0066.84725 1.9038 1.65175 2.5661l3.965 3.2641c.4987.4105 1.1649.5549 1.7888.3878l7.4523-1.9969c.6932-.1857 1.2338-.7287 1.4165-1.4228l1.2033-4.5722c.2214-.8415.2195-1.7262-.0057-2.5667l-.8817-3.2905c-.3381-1.2617-1.4321-2.119-2.6642-2.2152l.2147.801c.1429.5335-.1737 1.0818-.7071 1.2247-.5335.143-1.0818-.1736-1.2248-.7071l-.2588-.9659c-.1429-.5335-.6913-.85-1.2247-.7071-.5335.1429-.8501.6913-.7071 1.2247.1429.5335-.1737 1.0818-.7071 1.2248-.5335.1429-1.0819-.1737-1.2248-.7071l-.2588-.9659c-.143-.5335-.6913-.8501-1.2248-.7072-.5334.143-.85.6913-.7071 1.2248z" fill="#1f1f1f" fill-rule="evenodd"/></g></svg>